:SAMPLES-PER-SECOND 30
:FULLY-SPECIFIED
:DEGREES
1040
root  -46.1033 36.2225 11.0257 -93.8261 43.0396 159.965
RightUpLeg  -115.81 -16.5655 -1.77659
RightLeg  23.6709 -8.53806 -2.28721
RightFoot  -6.21187 -0.103652 1.37253
RightToes  3.49245e-010 0 -3.6325e-017
Spine  -129.192 -22.7313 -12.4144
Spine1  46.6877 -9.1346 8.08184
HEad  -22.5156 -10.4476 1.41497
LeftShoulder1  0.169353 3.00545 -27.811
LeftArm  -9.76708 21.2704 -40.3534
LeftForeArm  25.7675 -25.2809 -4.05189
LeftHand  -0.0381061 5.57985 -2.7834
RightShoulder  -0.651458 -5.40033 27.6503
RightArm  3.68792 -2.28741 33.7595
RightForeArm  -14.2227 10.354 4.12987
RightHand  -0.64148 4.36825 -7.86029
LeftUpLeg  -96.6787 -1.57552 2.8869
LeftLeg  3.91077 31.4228 0.780999
LeftFoot  -2.51386 0.143333 -1.61659
LeftToes  -5.36635e-011 -6.70219e-011 5.24975e-011
1041
root  -45.3109 36.1961 10.8465 -95.7896 46.7791 157.849
RightUpLeg  -115.501 -16.5383 -3.30978
RightLeg  24.1733 -6.31172 -1.56416
RightFoot  -7.42904 -0.0736363 0.683093
RightToes  3.49245e-010 0 -3.6325e-017
Spine  -129.361 -22.9177 -12.6431
Spine1  46.4605 -8.85835 7.40321
HEad  -22.1948 -10.8045 1.56153
LeftShoulder1  0.121167 3.14916 -28.0963
LeftArm  -9.95135 20.9435 -41.1791
LeftForeArm  26.4326 -27.1319 -4.41573
LeftHand  -0.0272005 5.22346 -2.53408
RightShoulder  -0.589546 -5.25189 26.9728
RightArm  3.36938 -2.53232 31.435
RightForeArm  -17.6478 7.72331 3.98413
RightHand  -0.78713 4.69165 -9.29468
LeftUpLeg  -99.1561 -4.47706 -6.51411
LeftLeg  9.30544 18.6313 2.47994
LeftFoot  -2.8293 0.185472 -2.26161
LeftToes  -5.36635e-011 -6.70219e-011 5.24975e-011
1042
root  -44.473 36.0264 10.6354 -95.8348 50.6105 154.767
RightUpLeg  -117.607 -17.259 -4.92357
RightLeg  24.6048 -4.81527 -1.04739
RightFoot  -8.62773 -0.0593841 0.0462584
RightToes  3.49245e-010 0 -3.6325e-017
Spine  -132.273 -24.5125 -12.7529
Spine1  47.1271 -9.19625 6.26464
HEad  -22.4257 -11.6105 1.65635
LeftShoulder1  -0.022433 3.56917 -28.4926
LeftArm  -10.4336 19.8867 -41.4316
LeftForeArm  27.9418 -28.9827 -4.74992
LeftHand  -0.00418212 4.38555 -2.52935
RightShoulder  -0.535317 -5.12884 26.163
RightArm  3.83065 -3.49245 29.5421
RightForeArm  -16.2549 7.11211 3.9129
RightHand  -0.528499 3.28824 -7.33305
LeftUpLeg  -103.686 -8.58448 -13.6069
LeftLeg  13.7566 10.4167 3.41646
LeftFoot  -2.57666 0.20755 -2.49477
LeftToes  -5.36635e-011 -6.70219e-011 5.24975e-011
1043
root  -43.5292 35.7309 10.4551 -96.2853 54.8725 148.544
RightUpLeg  -121.823 -19.8736 -7.27946
RightLeg  25.7332 -3.7281 -0.935935
RightFoot  -10.196 -0.0647263 -0.397092
RightToes  3.49245e-010 0 -3.6325e-017
Spine  -135.932 -31.7824 -14.2419
Spine1  46.8725 -12.9744 6.80711
HEad  -22.7239 -11.6996 1.61127
LeftShoulder1  0.00791289 3.48006 -28.3737
LeftArm  -11.2129 20.0007 -41.2129
LeftForeArm  28.7379 -31.4447 -5.27843
LeftHand  -0.0085387 4.47972 -2.6432
RightShoulder  -0.567198 -5.22422 26.2017
RightArm  5.87314 -4.34557 26.7379
RightForeArm  -14.8629 7.74798 4.42208
RightHand  -0.492829 2.80598 -7.20375
LeftUpLeg  -109.191 -13.7354 -16.2266
LeftLeg  15.5749 7.95072 2.80731
LeftFoot  -1.79243 0.249552 -2.85882
LeftToes  -5.36635e-011 -6.70219e-011 5.24975e-011
1044
root  -42.8345 35.9921 10.2824 -101.211 56.858 148.871
RightUpLeg  -116.32 -17.4713 -7.74887
RightLeg  24.9876 -0.994677 0.180095
RightFoot  -10.6446 -0.064283 -1.26337
RightToes  3.49245e-010 0 -3.6325e-017
Spine  -132.437 -24.8647 -13.7335
Spine1  47.0323 -8.18526 4.75419
HEad  -23.2269 -11.8478 1.14315
LeftShoulder1  0.0787302 3.27279 -27.8982
LeftArm  -12.729 20.3153 -40.8707
LeftForeArm  29.5648 -33.6662 -5.7737
LeftHand  -0.000726612 3.85753 -2.63604
RightShoulder  -0.602922 -5.32579 26.3463
RightArm  7.77379 -5.21993 24.7781
RightForeArm  -13.2871 8.88648 4.90283
RightHand  -0.479361 3.44798 -6.53468
LeftUpLeg  -108.653 -13.1221 -16.0239
LeftLeg  18.7858 7.07252 2.9879
LeftFoot  -2.19684 0.212472 -2.49152
LeftToes  -5.36635e-011 -6.70219e-011 5.24975e-011
1045
root  -41.9834 35.9486 10.1202 -104.452 59.9393 144.952
RightUpLeg  -115.877 -17.7113 -8.93872
RightLeg  24.9168 1.08922 0.857092
RightFoot  -11.671 -0.0841838 -1.76371
RightToes  3.49245e-010 0 -3.6325e-017
Spine  -133.223 -25.882 -13.925
Spine1  47.3175 -8.52339 4.51635
HEad  -24.1169 -11.0308 0.12569
LeftShoulder1  0.0107552 3.4726 -28.1461
LeftArm  -13.693 20.5776 -39.8874
LeftForeArm  28.7835 -35.3435 -6.2509
LeftHand  -0.00880554 4.18629 -1.79179
RightShoulder  -0.54339 -5.19613 25.3362
RightArm  8.52141 -6.15108 24.6432
RightForeArm  -11.4719 9.71241 4.9767
RightHand  -0.445323 3.34039 -6.17251
LeftUpLeg  -110.662 -15.2567 -16.3956
LeftLeg  17.4129 7.18146 2.84715
LeftFoot  -1.9229 0.235688 -2.72288
LeftToes  -5.36635e-011 -6.70219e-011 5.24975e-011
1046
root  -41.1364 35.9198 9.99192 -109.098 62.7897 139.962
RightUpLeg  -115.224 -17.9631 -10.0355
RightLeg  25.0216 3.29903 1.51518
RightFoot  -12.4995 -0.11162 -2.64951
RightToes  3.49245e-010 0 -3.6325e-017
Spine  -133.502 -27.255 -14.4887
Spine1  47.5641 -9.01034 4.5612
HEad  -24.6273 -10.9318 0.0390708
LeftShoulder1  -0.00971836 3.53223 -28.1173
LeftArm  -14.667 21.277 -38.8958
LeftForeArm  27.3818 -36.6838 -6.69064
LeftHand  -0.0100531 4.19145 -1.25642
RightShoulder  -0.535153 -5.16013 25.5213
RightArm  8.98234 -6.70907 24.1249
RightForeArm  -11.2984 10.6564 5.00006
RightHand  -0.503798 2.9897 -7.17765
LeftUpLeg  -111.912 -16.826 -15.9485
LeftLeg  13.561 8.65102 2.50554
LeftFoot  -1.13672 0.190269 -2.04936
LeftToes  -5.36635e-011 -6.70219e-011 5.24975e-011
1047
root  -40.3738 35.9825 9.83584 -112.85 65.5482 138.198
RightUpLeg  -112.576 -16.6256 -10.6512
RightLeg  24.6303 5.40819 2.17812
RightFoot  -13.0077 -0.138847 -3.58787
RightToes  3.49245e-010 0 -3.6325e-017
Spine  -132.27 -24.8544 -13.6213
Spine1  47.5002 -7.57571 3.75659
HEad  -25.136 -10.6228 -0.00585445
LeftShoulder1  0.0396643 3.38816 -28.0941
LeftArm  -17.0563 21.8277 -38.2761
LeftForeArm  26.6802 -36.7233 -6.74486
LeftHand  -0.00796672 4.06272 -0.728563
RightShoulder  -0.493821 -5.03198 25.4887
RightArm  7.78098 -7.32705 24.8634
RightForeArm  -10.6821 10.8814 4.57098
RightHand  -0.475124 4.39012 -5.99395
LeftUpLeg  -112.271 -15.8621 -13.0645
LeftLeg  9.16062 11.6988 1.75109
LeftFoot  -0.470811 0.162687 -1.67759
LeftToes  -5.36635e-011 -6.70219e-011 5.24975e-011
1048
root  -40.0068 36.7321 9.70919 -119.316 67.1048 149.642
RightUpLeg  -96.5045 -8.74759 -9.73067
RightLeg  24.3502 8.52801 3.67237
RightFoot  -12.9515 -0.153867 -4.61874
RightToes  3.49245e-010 0 -3.6325e-017
Spine  -116.018 -7.74901 -10.7958
Spine1  44.5788 1.30352 1.11193
HEad  -25.3762 -10.3472 0.286226
LeftShoulder1  0.00293539 3.49508 -27.8591
LeftArm  -19.0405 22.1681 -37.6301
LeftForeArm  25.9088 -35.8817 -6.5644
LeftHand  -0.0115094 4.45857 -0.633505
RightShoulder  -0.545481 -5.17442 25.8584
RightArm  6.13728 -7.81338 26.2576
RightForeArm  -8.71111 10.7334 3.99386
RightHand  -0.225849 5.52872 -2.75175
LeftUpLeg  -102.456 -7.44583 -6.19403
LeftLeg  8.55388 16.742 1.60174
LeftFoot  -0.595772 0.164061 -1.71143
LeftToes  -5.36635e-011 -6.70219e-011 5.24975e-011
1049
root  -39.1557 36.7151 9.59314 -124.416 69.6758 146.86
RightUpLeg  -93.8154 -7.98517 -10.1167
RightLeg  25.6377 10.3071 4.76079
RightFoot  -14.2203 -0.241162 -5.80126
RightToes  3.49245e-010 0 -3.6325e-017
Spine  -113.067 -8.77001 -11.583
Spine1  43.6375 0.238575 1.84979
HEad  -25.2828 -9.86735 0.335389
LeftShoulder1  -0.0379646 3.61526 -27.9565
LeftArm  -20.8247 22.1574 -36.8162
LeftForeArm  26.1159 -34.0646 -6.07494
LeftHand  -0.00587202 4.16321 -0.544205
RightShoulder  -0.607529 -5.32301 26.6759
RightArm  4.35574 -8.2816 27.9488
RightForeArm  -11.0828 10.2596 3.56014
RightHand  -0.48587 3.97466 -6.25223
LeftUpLeg  -101.246 -5.14847 2.35723
LeftLeg  1.41286 23.5171 -2.13237
LeftFoot  0.873214 0.195408 -1.86667
LeftToes  -5.36635e-011 -6.70219e-011 5.24975e-011
1050
root  -38.3096 36.7067 9.40581 -128.542 72.0308 146.773
RightUpLeg  -89.571 -6.16173 -10.4867
RightLeg  27.0349 11.6711 5.7814
RightFoot  -15.7491 -0.363141 -6.62735
RightToes  3.49245e-010 0 -3.6325e-017
Spine  -108.936 -7.32173 -11.6461
Spine1  42.5332 0.258443 2.09043
HEad  -25.5479 -9.18333 -0.0507932
LeftShoulder1  -0.0977438 3.79123 -27.8277
LeftArm  -21.8924 22.1111 -36.2535
LeftForeArm  25.3905 -31.7495 -5.54042
LeftHand  -0.01431 4.89495 -0.265353
RightShoulder  -0.623975 -5.37883 26.5605
RightArm  2.14182 -9.7123 30.8787
RightForeArm  -10.7543 10.3839 2.87436
RightHand  -0.508131 4.08558 -6.48976
LeftUpLeg  -98.747 -3.91149 5.46393
LeftLeg  -3.31287 24.9105 -3.28087
LeftFoot  1.44242 0.34838 -3.20184
LeftToes  -5.36635e-011 -6.70219e-011 5.24975e-011
1051
root  -37.323 36.5359 9.19015 -131.241 73.8906 145.147
RightUpLeg  -87.8874 -5.69048 -9.96306
RightLeg  28.6095 13.2396 7.25046
RightFoot  -17.2934 -0.532531 -8.00621
RightToes  3.49245e-010 0 -3.6325e-017
Spine  -108.662 -8.09672 -12.3158
Spine1  42.7695 -0.735857 2.84497
HEad  -25.8376 -8.68536 -0.213342
LeftShoulder1  -0.0626519 3.68897 -27.6701
LeftArm  -22.3537 22.0052 -35.6294
LeftForeArm  24.4916 -28.9771 -4.93541
LeftHand  -0.011713 4.74756 -0.109269
RightShoulder  -0.679538 -5.51484 27.1096
RightArm  1.00235 -10.9654 33.3357
RightForeArm  -9.83565 10.4165 2.52028
RightHand  -0.490394 3.82257 -6.43786
LeftUpLeg  -99.688 -3.79459 5.59024
LeftLeg  -4.24804 26.0384 -2.49798
LeftFoot  0.944599 0.561565 -5.26993
LeftToes  -5.36635e-011 -6.70219e-011 5.24975e-011
